# xmcd CD database file
#
# Track frame offsets:
#	150
#	11312
#	43725
#	56643
#	75201
#	87203
#	99259
#	113310
#	123356
#	137082
#	149069
#	159679
#	176618
#	189968
#	201729
#	214698
#	225305
#	236328
#	245514
#	264784
#
# Disc length: 3860 seconds
#
# Revision: 5
# Processed by: cddbd v1.5.2PL0 Copyright (c) Steve Scherf et al.
# Submitted via: CDex 1.50
#
DISCID=fe0f1214
DTITLE=Various Artist - The Bossa Nova Exciting Jazz Samba Rhythms-Vol.1
DYEAR=1900
DGENRE=Jazz
TTITLE0=Roberto Menescal - Inflüencia Do Jazz
TTITLE1=Odell Brown and The Organizers - Mas Que Nada
TTITLE2=Os Cincos-Pados - Berimbau
TTITLE3=Jongo Trio - Águas De Março (Waters of March)
TTITLE4=Quarteto Em Cy Com Tamba Trio - Água De Beber (Water to Drink)
TTITLE5=Pedrinho Mattar Trio - Samba Pro Pedrinho
TTITLE6=Charlie Byrd and Woody Herman - Bamba Samba (Bossa Nova)
TTITLE7=Breno Sauer Quinteto - A Felicidade
TTITLE8=Nelson Riddle and Orchestra - Lamento
TTITLE9=Zimbo Trio - To Live Happily (Pra Viver Feliz)
TTITLE10=Os Catedraticos - Os Grilos (Crickets Sing for Anamaria)
TTITLE11=Lalo Schifrin and Orchestra - Samba De Uma Nota Só
TTITLE12=Geraldo Trio - Chora Tua Tristeza
TTITLE13=Bossa Jazz Trio - Canto De Ossanha
TTITLE14=Os Cobras - Cheiro De Saudade
TTITLE15=The Continentals - String of Pearls
TTITLE16=João Meirelles and His Bossa Kings - Batucada
TTITLE17=Chris Montez - The Face I Love
TTITLE18=Martin Denny - Exotique Bossa Nova
TTITLE19=Quartette Tres Bien - Boss Tres Bien
EXTD=
EXTT0=
EXTT1=
EXTT2=
EXTT3=
EXTT4=
EXTT5=
EXTT6=
EXTT7=
EXTT8=
EXTT9=
EXTT10=
EXTT11=
EXTT12=
EXTT13=
EXTT14=
EXTT15=
EXTT16=
EXTT17=
EXTT18=
EXTT19=
PLAYORDER=
